<svg version="1.1" xmlns="http://www.w3.org/2000/svg" xmlns:xlink="http://www.w3.org/1999/xlink"
	 viewBox="0 0 100 100" xml:space="preserve">
<path style="fill:#E0D200;" d="M-350.1,7.4c-9,0-16.2,7.3-16.2,16.2c0,9,7.3,16.2,16.2,16.2s16.2-7.3,16.2-16.2
	C-333.8,14.6-341.1,7.4-350.1,7.4z M-350.1,29c-3,0-5.4-2.4-5.4-5.4c0-3,2.4-5.4,5.4-5.4c3,0,5.4,2.4,5.4,5.4
	C-344.6,26.6-347.1,29-350.1,29z"/>
<path style="fill:#5DB3B3;" d="M-350.1,72.4c-9,0-16.2,7.3-16.2,16.2c0,9,7.3,16.2,16.2,16.2c9,0,16.2-7.3,16.2-16.2
	C-333.8,79.6-341.1,72.4-350.1,72.4z M-356.6,93.5l6.5-11.4l6.5,11.4H-356.6z"/>
<path style="fill:#01476F;" d="M82.8,66.2c-9,0-16.2,7.3-16.2,16.2c0,9,7.3,16.2,16.2,16.2c9,0,16.2-7.3,16.2-16.2
	C99,73.5,91.7,66.2,82.8,66.2z M87.6,87.4h-9.8v-9.8h9.8V87.4z"/>
<g>
	<path style="fill:#5DB3B3;" d="M17.8,66.2c-9,0-16.2,7.3-16.2,16.2c0,9,7.3,16.2,16.2,16.2S34,91.5,34,82.5
		C34,73.5,26.7,66.2,17.8,66.2z M11.3,87.4L17.8,76l6.5,11.4H11.3z"/>
	<path style="fill:#5DB3B3;" d="M50.3,66.2c-9,0-16.2,7.3-16.2,16.2c0,9,7.3,16.2,16.2,16.2s16.2-7.3,16.2-16.2
		C66.5,73.5,59.2,66.2,50.3,66.2z M43.8,87.4L50.3,76l6.5,11.4H43.8z"/>
	<path style="fill:#5DB3B3;" d="M29.2,71c2.6,2.6,6.9,2.6,9.5,0v23c-2.6-2.6-6.9-2.6-9.5,0V71z"/>
</g>
<path style="fill:#A74100;" d="M66.5,50c0,9,7.3,16.2,16.2,16.2C91.7,66.3,99,59,99,50s-7.3-16.2-16.2-16.2
	C73.8,33.8,66.5,41,66.5,50z M86,54.1c0,1.8-1.5,3.3-3.2,3.3c-1.8,0-3.2-1.5-3.2-3.3c0-1.8,1.5-3.2,3.2-3.2
	C84.5,50.8,86,52.3,86,54.1z M86,45.9c0,1.8-1.5,3.2-3.2,3.2c-1.8,0-3.2-1.5-3.2-3.2c0-1.8,1.5-3.2,3.2-3.2
	C84.5,42.7,86,44.1,86,45.9z"/>
<path style="fill:#A74100;" d="M66.5,17.5c0,9,7.3,16.2,16.2,16.2c9,0,16.2-7.3,16.2-16.2S91.7,1.3,82.8,1.3
	C73.8,1.3,66.5,8.5,66.5,17.5z M86,21.6c0,1.8-1.5,3.3-3.2,3.3c-1.8,0-3.2-1.5-3.2-3.3c0-1.8,1.5-3.2,3.2-3.2
	C84.5,18.3,86,19.8,86,21.6z M86,13.4c0,1.8-1.5,3.2-3.2,3.2c-1.8,0-3.2-1.5-3.2-3.2c0-1.8,1.5-3.2,3.2-3.2
	C84.5,10.2,86,11.6,86,13.4z"/>
<path style="fill:#111111;" d="M66.5,50c0-9-7.3-16.2-16.2-16.2C41.3,33.8,34,41,34,50c0,9,7.3,16.2,16.2,16.2
	C59.2,66.3,66.5,59,66.5,50z M46.8,56.3c-0.8,0.8-2.1,0.8-2.9,0c-0.4-0.4-0.6-0.9-0.6-1.4c0-0.5,0.2-1,0.6-1.4l3.4-3.4l-3.4-3.4
	c-0.4-0.4-0.6-0.9-0.6-1.4s0.2-1,0.6-1.4c0.8-0.8,2.1-0.8,2.9,0l3.4,3.4l3.4-3.4c0.8-0.8,2.1-0.8,2.9,0c0.8,0.8,0.8,2.1,0,2.9
	L53.1,50l3.4,3.4c0.8,0.8,0.8,2.1,0,2.9c-0.8,0.8-2.1,0.8-2.9,0l-3.4-3.4L46.8,56.3z"/>
<path style="fill:#A74100;" d="M71.3,38.5c2.6-2.6,2.6-6.9,0-9.5h23c-2.6,2.6-2.6,6.9,0,9.5H71.3z"/>
<path style="fill:#E0D200;" d="M29.2,6c2.6,2.6,6.9,2.6,9.5,0v23c-2.6-2.6-6.9-2.6-9.5,0V6z"/>
<path style="fill:#E0D200;" d="M17.8,1.2c-9,0-16.2,7.3-16.2,16.2c0,9,7.3,16.2,16.2,16.2c9,0,16.2-7.3,16.2-16.2
	C34,8.5,26.7,1.2,17.8,1.2z M17.8,22.9c-3,0-5.4-2.4-5.4-5.4c0-3,2.4-5.4,5.4-5.4c3,0,5.4,2.4,5.4,5.4
	C23.2,20.5,20.7,22.9,17.8,22.9z"/>
<path style="fill:#E0D200;" d="M50.3,1.3c-9,0-16.2,7.3-16.2,16.2c0,9,7.3,16.2,16.2,16.2c9,0,16.2-7.3,16.2-16.2
	C66.5,8.5,59.2,1.3,50.3,1.3z M50.3,22.9c-3,0-5.4-2.4-5.4-5.4c0-3,2.4-5.4,5.4-5.4c3,0,5.4,2.4,5.4,5.4
	C55.7,20.5,53.2,22.9,50.3,22.9z"/>
<path style="fill:#E0D200;" d="M17.8,33.8C8.8,33.8,1.5,41,1.5,50c0,9,7.3,16.2,16.2,16.2C26.7,66.3,34,59,34,50
	C34,41,26.7,33.8,17.8,33.8z M17.8,55.4c-3,0-5.4-2.4-5.4-5.4c0-3,2.4-5.4,5.4-5.4c3,0,5.4,2.4,5.4,5.4C23.2,53,20.7,55.4,17.8,55.4
	z"/>
<path style="fill:#E0D200;" d="M29.2,29c-2.6,2.6-2.6,6.9,0,9.5h-23c2.6-2.6,2.6-6.9,0-9.5H29.2z"/>
</svg>
